PathFileType	4	(X/Y/Z)	E-squat_0-154.trc
DataRate	CameraRate	NumFrames	NumMarkers	Units	OrigDataRate	OrigDataStartFrame	OrigNumFrames
30	30	8	22	m	30	0	154
Frame#	Time	Hip			RHip			RKnee			RAnkle			RBigToe			RSmallToe			RHeel			LHip			LKnee			LAnkle			LBigToe			LSmallToe			LHeel			Neck			Head			Nose			RShoulder			RElbow			RWrist			LShoulder			LElbow			LWrist			
		X1	Y1	Z1	X2	Y2	Z2	X3	Y3	Z3	X4	Y4	Z4	X5	Y5	Z5	X6	Y6	Z6	X7	Y7	Z7	X8	Y8	Z8	X9	Y9	Z9	X10	Y10	Z10	X11	Y11	Z11	X12	Y12	Z12	X13	Y13	Z13	X14	Y14	Z14	X15	Y15	Z15	X16	Y16	Z16	X17	Y17	Z17	X18	Y18	Z18	X19	Y19	Z19	X20	Y20	Z20	X21	Y21	Z21	X22	Y22	Z22	
0	0.0	-0.006956998048157382	0.8071693835338188	0.08096207916491435	-0.10779920901744236	0.8009402216871786	0.07857334222335441	-0.11803426877919014	0.3918484337484875	0.06543495267341615	-0.14303794322465058	5.4395591812872445e-17	-9.360406663606663e-18	-0.1153084507606353	-0.07492056513623375	0.17738542748171177	-0.18072492239071486	-0.08270123639168471	0.13880417803265227	-0.1462955452228642	-0.07461205821073612	-0.029503822866945473	0.09250754414775894	0.8030771314247344	0.10043589572890708	0.11689991549464185	0.385069040995047	0.05999661490734844	0.14303794322465058	5.640138137869599e-17	-1.408040701002375e-17	0.1291755981828948	-0.08445221134075623	0.15168491462030667	0.18834107049949517	-0.07197060549941167	0.13109006106862703	0.11657971123187806	-0.06213977497167779	-0.04005231433240782	-0.010037298989698504	1.4085481590421929	0.13258730223253024	-0.01548698514864559	1.6398457265037207	0.17295826314786972	-0.01915504007122402	1.4983287920990482	0.2438010340343264	-0.17109734692702208	1.3139807899776426	0.08635529783557308	-0.20038641500202353	1.0285088112840124	0.06711822733893717	-0.2252276378756697	0.7766772358329196	0.12301519181942232	0.14716441291328633	1.3241032079418835	0.12765834283488833	0.19163748769885358	1.0373150722511297	0.10900340746565579	0.20552208142603864	0.7937950954396129	0.18291075239489915	
1	0.0333333333333333	-0.006592067839983004	0.8099854462226715	0.08656257077505254	-0.10764386444547772	0.7982876989144364	0.07869233653739587	-0.11885910140612979	0.38841893726533366	0.05968833153560963	-0.14228464093541698	0.004867212644161352	0.004932383480169488	-0.11423855184958112	-0.0752820729907447	0.18307047030031712	-0.17890294402075746	-0.08060162069206189	0.14434366586473635	-0.13979305515071183	-0.0679423805154015	-0.030482733619306524	0.09254556299343893	0.797562392782594	0.10649301537604967	0.11654857219690849	0.3788821092033414	0.05364808425504605	0.13689060588952934	0.00316710850081308	5.275625240798548e-05	0.1291986345633148	-0.08402433012675918	0.1576350443839119	0.18877825424617425	-0.07451633443019284	0.13750567582911746	0.11696757029196024	-0.06002707817673354	-0.04480469790186225	-0.010871849390992363	1.40913149424052	0.13206755165978076	-0.014376763717106715	1.637254635730152	0.17847105406896607	-0.012565617036084737	1.4956082372984802	0.24965846480427561	-0.16972816574669783	1.3194755915528893	0.0916090944191598	-0.20601602149581402	1.0396202277435627	0.06189716575996649	-0.2299606812247028	0.78748565739794	0.12330009107659344	0.14631739888184192	1.3264725838116738	0.13396641736629347	0.18605373295716773	1.041652835965237	0.11665918085860216	0.20496147739634513	0.7977303150690918	0.1851468443027155	
2	0.0666666666666666	-0.007017672745657635	0.8114591685826192	0.08882691305893425	-0.10834485400807062	0.7947401136376738	0.07660717153097342	-0.12028804556729672	0.3846976117074975	0.054492349907557296	-0.14134928397359356	0.007214480737624337	0.007906185033507984	-0.11361526862160463	-0.07611315167510689	0.18723838263427864	-0.17729081156617726	-0.07989382041596305	0.14774480603692935	-0.13488774299733175	-0.06456941447227897	-0.03167966861467969	0.09200139270749878	0.7920202209502677	0.1095785509558097	0.11569799376006322	0.3739561872917561	0.04854686097663091	0.1317538799776525	0.004245062367416868	0.0010979982110580896	0.12985441654765034	-0.08355626212017345	0.16259879696264473	0.18975488735015528	-0.0764754323208169	0.14280372436810376	0.11665397377383542	-0.058429836780157125	-0.04443915502440686	-0.011098476603991216	1.4094680528662746	0.13621184690312763	-0.01433702225663125	1.6353713477330594	0.18481783621202888	-0.007499607179513933	1.4935017427350794	0.25786763830408055	-0.16973898775729732	1.3233201821309664	0.09691975485389409	-0.2112509927937631	1.047222876249324	0.05950278226892966	-0.23393560724306683	0.796157248385426	0.12493331995426664	0.14425784863711755	1.3281467185864793	0.14270333547245465	0.18291813283335465	1.0446263071497481	0.12352671393948106	0.2055701589348294	0.8004428201426816	0.1846912086957811	
3	0.1	-0.00820798906361665	0.8111261306315884	0.0865396537734968	-0.10997160565748532	0.7909209131623405	0.07120648389878192	-0.12151576036050422	0.3817380775748654	0.05072403039303383	-0.140335024569736	0.007259706593579618	0.008393198845329802	-0.11418118985688187	-0.07701573518342061	0.18897545286486667	-0.1761325142041181	-0.08042031503421863	0.14884950014457818	-0.1322533266468542	-0.0646737471503354	-0.03291474600574372	0.09101986426968622	0.78764031681351	0.10795192004446692	0.1141774133035901	0.37070954966093184	0.04642183604715922	0.12869754156504423	0.0029635087424532336	0.0030877019652391	0.1310899029475431	-0.08307318047838515	0.16609432486595688	0.19110192536652054	-0.07747197622419548	0.1464648853046057	0.11586839825073127	-0.05792696232511383	-0.04051792424743352	-0.01112112484145613	1.4098181460792165	0.14568334718764897	-0.015462956639932954	1.634550315631215	0.1931373548566656	-0.005594644869492171	1.492250905023558	0.2689901558528321	-0.1715488341344556	1.324895613028246	0.10231975788223677	-0.2167716746429556	1.049924928594998	0.061247082671746	-0.23755501886270483	0.8008650467926399	0.12841153936570618	0.1416867087243989	1.3291284484493435	0.15279079785982416	0.1827095854238052	1.0460009299054418	0.1263397630341439	0.20781321134671635	0.8006942098101136	0.1787642725728312	
4	0.1333333333333333	-0.009727695257389162	0.8104468549381588	0.08030583858843522	-0.11212483669796067	0.7894040367952125	0.06289379095366228	-0.1211282616661508	0.3814660574886615	0.05006965322617927	-0.13994510336737404	0.006747553839069243	0.007297639904653593	-0.11568770859994822	-0.07747668720008896	0.18873273173610505	-0.1754609211138222	-0.08085765712212041	0.14899239050062302	-0.1316597407216287	-0.06620831407400303	-0.033714630279113686	0.09010567741524812	0.7867200838747256	0.10217827666694514	0.11196587494948905	0.369665475305807	0.04864732004342979	0.12814406013276722	0.0008640420844719485	0.004839456545889852	0.13251958505469758	-0.08264318882009866	0.16861094666574075	0.19213165618170766	-0.07717556978115649	0.14899369799495113	0.11567817229033572	-0.058673212692060446	-0.03751658964105633	-0.011478438338054724	1.4102209583999505	0.1579707258773115	-0.0167311759348789	1.6342598253466758	0.2048740524136574	-0.006899157060826819	1.4910918552903132	0.28315248881853317	-0.17388475923560728	1.325016713581523	0.10894528608970744	-0.22329874132860789	1.0496408867850162	0.06625910116944882	-0.2425227582372695	0.8015162368411498	0.13232752740452935	0.1402644613599317	1.3291596975973086	0.16277992461994273	0.18367551762819775	1.0461243517620844	0.12484779946803959	0.2108984835797059	0.7986911622372842	0.1689246386833354	
5	0.1666666666666666	-0.011545310254972229	0.8111104723661849	0.07034404813257249	-0.11464067017916309	0.7919060284357605	0.05249944601112745	-0.11922955347769672	0.3842122662932766	0.054749609280086126	-0.140869654119953	0.006320180529349502	0.006280755860070043	-0.11629974943777222	-0.0776978784021279	0.18784423543432616	-0.1748948436594668	-0.08034865581412926	0.14910484676797667	-0.13263094614484738	-0.06755847768621258	-0.033231125529368084	0.08916979235504441	0.789777653447729	0.09361924319053147	0.10943655708267706	0.3718975846050337	0.05509728093106546	0.1293422097184626	-0.0003160393863142709	0.005653484117657661	0.1341239218470453	-0.08233657475480488	0.17111910870049507	0.19244954743493886	-0.07577598616732936	0.1511255285173967	0.11660711903253337	-0.06014215046357142	-0.03554822825509742	-0.012100440250039549	1.408651003801399	0.17155006714500967	-0.017332115003194586	1.6326233749687642	0.2218118531970997	-0.008962134149178048	1.4881140544623404	0.30124950231002173	-0.17496218278418643	1.3244664041795293	0.118930861915198	-0.2300790483734008	1.049393997128004	0.07364429571956459	-0.2499607913456558	0.7997227299290408	0.13482407199201804	0.14018958119530703	1.3266182274981533	0.17467455812945815	0.18399478540072528	1.0448189869143867	0.1253242352726103	0.21351420048552205	0.7962404106804706	0.16105145618460956	
6	0.2	-0.013553350147412149	0.8116746231300027	0.055793601235131926	-0.11716734788060791	0.7956425819926728	0.03973709573560413	-0.11728397943366853	0.3877598781580742	0.06596597976568137	-0.1427528800333577	0.006018613699091907	0.006746298024745631	-0.11491930755923715	-0.07788178606817395	0.18713720335919545	-0.17429960937501213	-0.07910613139337548	0.14965669674863508	-0.13444221520268984	-0.06787664941749993	-0.031059791039294977	0.08761300131630542	0.7929276911012089	0.08174076224687232	0.10793693141599753	0.3765729283475146	0.0643615717758024	0.13070240664131627	0.00039685953726346603	0.006655410306811208	0.13589868745743044	-0.08201159195156317	0.17343686273223446	0.19242658741391477	-0.07421128312014814	0.15259295476465262	0.11766750259233864	-0.06121248710192537	-0.03274046691437618	-0.01311322049271561	1.4012742432176166	0.18629923574358312	-0.017406735079964722	1.6265805389319095	0.24489130590677874	-0.009238998571132806	1.4808439474936526	0.32220724012725505	-0.17435794220086906	1.321378181067526	0.13396564036498618	-0.2354916097514348	1.0483086948135258	0.08392069753486628	-0.25871962821717953	0.7960533664383449	0.13641909826935114	0.14039538637375942	1.3193789128943825	0.1893322593956527	0.18367694758482866	1.0407825636320842	0.13267256235330646	0.21504089304339463	0.7936466274852404	0.159506750544421	
7	0.2333333333333333	-0.015413974604880813	0.8081874017436639	0.03505917730291798	-0.11920964502376617	0.7949831926693547	0.022334475900966388	-0.11674686113963399	0.38908973445461215	0.08272849942885395	-0.14469494258545532	0.005927361746924192	0.00832368581582363	-0.11337657751022422	-0.07771759326812162	0.18690396012690705	-0.1745614491303677	-0.07792358007109308	0.1513571340131714	-0.13614690636578056	-0.06671985408955278	-0.028804905995274067	0.08497476491350205	0.7905822308934708	0.06277316758509263	0.1089860405389652	0.3796989277145598	0.07552330665021663	0.13097606659175787	0.002650698588282492	0.00938163847338847	0.13723547314335974	-0.08142625994546539	0.1743277441187966	0.1924325871354869	-0.0729750488705158	0.15298793863311275	0.11757467357225995	-0.06048782332500644	-0.029273825504298155	-0.014526183036649794	1.3845949827514954	0.20308582784784648	-0.016851413392546016	1.6115429153345537	0.273086493172552	-0.007808585879372684	1.4656737198800565	0.34419759543126965	-0.17347683051334664	1.3092252972295237	0.15674005535952965	-0.23911433720925915	1.0396855320687786	0.09835891398060481	-0.2675665396867208	0.7866712754989358	0.13967053801307733	0.14046446175754182	1.3049809350248185	0.20346857805176405	0.18407882817386867	1.0303356464486493	0.1427272265653188	0.21603703670443106	0.7864618393769504	0.16351469963102688	
